<svg xmlns="http://www.w3.org/2000/svg" viewBox="0 0 400 220" fill="none">
  <defs>
    <linearGradient id="cl2" x1="0" y1="0" x2="400" y2="220" gradientUnits="userSpaceOnUse">
      <stop stop-color="#1a1420"/>
      <stop offset="1" stop-color="#0f172a"/>
    </linearGradient>
  </defs>
  <rect width="400" height="220" fill="url(#cl2)"/>
  <circle cx="200" cy="110" r="140" fill="#d97706" opacity="0.06"/>
  <!-- Chat interface panel -->
  <rect x="16" y="16" width="216" height="190" rx="14" fill="#1e293b" stroke="#334155" stroke-width="1.5" opacity="0.9"/>
  <!-- Header -->
  <rect x="16" y="16" width="216" height="44" rx="14" fill="#0f172a"/>
  <rect x="16" y="46" width="216" height="14" rx="0" fill="#0f172a"/>
  <circle cx="36" cy="38" r="12" fill="#d97706" opacity="0.3"/>
  <text x="30" y="43" text-anchor="middle" fill="#f59e0b" font-size="12" font-weight="bold" font-family="system-ui">C</text>
  <text x="56" y="42" fill="#f1f5f9" font-size="13" font-weight="700" font-family="system-ui">Claude</text>
  <text x="114" y="42" fill="#64748b" font-size="11" font-family="system-ui">4.7 · Opus 4</text>
  <!-- Chat messages -->
  <!-- User message -->
  <rect x="36" y="70" width="80" height="22" rx="10" fill="#334155"/>
  <text x="44" y="84" fill="#e2e8f0" font-size="9" font-family="system-ui">Review Claude?</text>
  <!-- AI message -->
  <rect x="128" y="100" width="88" height="34" rx="10" fill="#d97706" opacity="0.12"/>
  <text x="136" y="115" fill="#f59e0b" font-size="9" font-family="system-ui">Claude 4.7 offers</text>
  <text x="136" y="127" fill="#f59e0b" font-size="9" font-family="system-ui">200K context...</text>
  <!-- User message 2 -->
  <rect x="36" y="142" width="54" height="22" rx="10" fill="#334155"/>
  <text x="44" y="156" fill="#e2e8f0" font-size="9" font-family="system-ui">Pricing?</text>
  <!-- AI message 2 -->
  <rect x="96" y="170" width="120" height="22" rx="10" fill="#d97706" opacity="0.12"/>
  <text x="104" y="184" fill="#f59e0b" font-size="9" font-family="system-ui">Starting at $20/mo...</text>
  <!-- Right side: Title -->
  <text x="248" y="56" fill="#f59e0b" font-size="11" font-weight="800" font-family="system-ui" letter-spacing="2">REVIEW</text>
  <text x="248" y="90" fill="#f1f5f9" font-size="26" font-weight="900" font-family="system-ui" letter-spacing="-0.5">Claude AI</text>
  <text x="248" y="120" fill="#f1f5f9" font-size="26" font-weight="900" font-family="system-ui" letter-spacing="-0.5">Review</text>
  <text x="248" y="156" fill="#94a3b8" font-size="12" font-family="system-ui">Features, pricing &amp; use cases</text>
  <!-- Key specs -->
  <rect x="248" y="172" width="60" height="20" rx="6" fill="#d97706" opacity="0.12"/>
  <text x="278" y="186" text-anchor="middle" fill="#f59e0b" font-size="9" font-weight="700" font-family="system-ui">4.7 ★</text>
  <rect x="316" y="172" width="60" height="20" rx="6" fill="#8b5cf6" opacity="0.12"/>
  <text x="346" y="186" text-anchor="middle" fill="#a78bfa" font-size="9" font-weight="700" font-family="system-ui">200K ctx</text>
</svg>
