<svg xmlns="http://www.w3.org/2000/svg" viewBox="0 0 400 220" fill="none">
  <defs>
    <linearGradient id="cd2" x1="0" y1="0" x2="400" y2="220" gradientUnits="userSpaceOnUse">
      <stop stop-color="#0f1a2e"/>
      <stop offset="1" stop-color="#0f172a"/>
    </linearGradient>
  </defs>
  <rect width="400" height="220" fill="url(#cd2)"/>
  <circle cx="60" cy="60" r="120" fill="#3b82f6" opacity="0.06"/>
  <!-- Three code columns -->
  <rect x="16" y="24" width="118" height="172" rx="10" fill="#1e293b" stroke="#334155" stroke-width="1"/>
  <rect x="16" y="24" width="118" height="24" rx="10" fill="#0f172a"/>
  <rect x="16" y="36" width="118" height="10" rx="0" fill="#0f172a"/>
  <text x="24" y="40" fill="#64748b" font-size="8" font-family="monospace">copilot</text>
  <text x="24" y="68" fill="#64748b" font-size="9" font-family="monospace">def</text>
  <text x="44" y="68" fill="#3b82f6" font-size="9" font-family="monospace">generate():</text>
  <text x="24" y="84" fill="#64748b" font-size="9" font-family="monospace">return</text>
  <text x="56" y="84" fill="#10b981" font-size="9" font-family="monospace">result</text>
  <text x="24" y="100" fill="#64748b" font-size="9" font-family="monospace"># AI suggestion</text>
  <rect x="24" y="108" width="80" height="16" rx="4" fill="#3b82f6" opacity="0.1"/>
  <text x="28" y="120" fill="#3b82f6" font-size="8" font-family="monospace">optimize()</text>
  <rect x="142" y="24" width="118" height="172" rx="10" fill="#1e293b" stroke="#334155" stroke-width="1"/>
  <rect x="142" y="24" width="118" height="24" rx="10" fill="#0f172a"/>
  <rect x="142" y="36" width="118" height="10" rx="0" fill="#0f172a"/>
  <text x="150" y="40" fill="#64748b" font-size="8" font-family="monospace">cursor</text>
  <text x="150" y="68" fill="#64748b" font-size="9" font-family="monospace">function</text>
  <text x="196" y="68" fill="#eab308" font-size="9" font-family="monospace">analyze</text>
  <text x="150" y="84" fill="#64748b" font-size="9" font-family="monospace">const</text>
  <text x="180" y="84" fill="#cbd5e1" font-size="9" font-family="monospace">ctx =</text>
  <text x="150" y="100" fill="#64748b" font-size="9" font-family="monospace">// Context-aware</text>
  <rect x="150" y="108" width="80" height="16" rx="4" fill="#eab308" opacity="0.1"/>
  <text x="154" y="120" fill="#eab308" font-size="8" font-family="monospace">refactor()</text>
  <rect x="268" y="24" width="118" height="172" rx="10" fill="#1e293b" stroke="#334155" stroke-width="1"/>
  <rect x="268" y="24" width="118" height="24" rx="10" fill="#0f172a"/>
  <rect x="268" y="36" width="118" height="10" rx="0" fill="#0f172a"/>
  <text x="276" y="40" fill="#64748b" font-size="8" font-family="monospace">tabnine</text>
  <text x="276" y="68" fill="#64748b" font-size="9" font-family="monospace">fn</text>
  <text x="296" y="68" fill="#8b5cf6" font-size="9" font-family="monospace">complete</text>
  <text x="276" y="84" fill="#64748b" font-size="9" font-family="monospace">model</text>
  <text x="308" y="84" fill="#cbd5e1" font-size="9" font-family="monospace">.predict</text>
  <text x="276" y="100" fill="#64748b" font-size="9" font-family="monospace">// ML-based</text>
  <rect x="276" y="108" width="80" height="16" rx="4" fill="#8b5cf6" opacity="0.1"/>
  <text x="280" y="120" fill="#8b5cf6" font-size="8" font-family="monospace">suggest()</text>
  <!-- Bottom overlay bar -->
  <rect x="72" y="186" width="260" height="22" rx="11" fill="#3b82f6" opacity="0.1"/>
  <text x="202" y="200" text-anchor="middle" fill="#60a5fa" font-size="10" font-weight="800" font-family="system-ui" letter-spacing="1.5">BEST CODING ASSISTANTS 2026</text>
</svg>
