<svg xmlns="http://www.w3.org/2000/svg" viewBox="0 0 400 220" fill="none">
  <rect width="400" height="220" fill="url(#gBg)"/>
  <defs>
    <linearGradient id="gBg" x1="0" y1="0" x2="400" y2="220" gradientUnits="userSpaceOnUse">
      <stop stop-color="#0f172a"/>
      <stop offset="1" stop-color="#1e3a8a"/>
    </linearGradient>
  </defs>
  <g opacity="0.06">
    <circle cx="200" cy="110" r="140" fill="#a78bfa"/>
  </g>
  <rect x="52" y="48" width="148" height="124" rx="12" fill="#1e293b" stroke="#334155" stroke-width="1.5"/>
  <rect x="68" y="64" width="116" height="92" rx="6" fill="#0f172a"/>
  <circle cx="126" cy="90" r="12" fill="#7c3aed" opacity="0.25"/>
  <circle cx="126" cy="90" r="5" fill="#a78bfa"/>
  <rect x="90" y="106" width="60" height="4" rx="2" fill="#334155"/>
  <rect x="90" y="115" width="40" height="4" rx="2" fill="#475569"/>
  <rect x="90" y="124" width="50" height="4" rx="2" fill="#334155"/>
  <rect x="212" y="48" width="148" height="124" rx="12" fill="#1e293b" stroke="#334155" stroke-width="1.5"/>
  <rect x="228" y="64" width="116" height="92" rx="6" fill="#0f172a"/>
  <circle cx="286" cy="90" r="12" fill="#2563eb" opacity="0.25"/>
  <circle cx="286" cy="90" r="5" fill="#60a5fa"/>
  <rect x="250" y="106" width="60" height="4" rx="2" fill="#334155"/>
  <rect x="250" y="115" width="40" height="4" rx="2" fill="#475569"/>
  <rect x="250" y="124" width="50" height="4" rx="2" fill="#334155"/>
  <text x="380" y="200" text-anchor="end" fill="#475569" font-family="system-ui" font-size="11" font-weight="700" letter-spacing="1.5">AI IMAGE</text>
</svg>
