<svg xmlns="http://www.w3.org/2000/svg" viewBox="0 0 200 44" fill="none">
  <!-- Hexagon AI icon -->
  <polygon points="24,10 34,5 44,10 44,20 34,25 24,20" fill="#2563EB"/>
  <polygon points="27,12 34,8 41,12 41,18 34,22 27,18" fill="#1d4ed8"/>
  <!-- Nodes -->
  <circle cx="34" cy="10" r="2" fill="white"/>
  <circle cx="29" cy="15" r="2" fill="white"/>
  <circle cx="39" cy="15" r="2" fill="white"/>
  <circle cx="31" cy="20" r="2" fill="white"/>
  <circle cx="37" cy="20" r="2" fill="white"/>
  <!-- Connections -->
  <line x1="34" y1="10" x2="29" y2="15" stroke="white" stroke-width="0.8" opacity="0.7"/>
  <line x1="34" y1="10" x2="39" y2="15" stroke="white" stroke-width="0.8" opacity="0.7"/>
  <line x1="29" y1="15" x2="31" y2="20" stroke="white" stroke-width="0.8" opacity="0.7"/>
  <line x1="39" y1="15" x2="37" y2="20" stroke="white" stroke-width="0.8" opacity="0.7"/>
  <line x1="29" y1="15" x2="37" y2="20" stroke="white" stroke-width="0.8" opacity="0.4"/>
  <!-- Brand text -->
  <text x="56" y="21" font-family="system-ui, sans-serif" font-size="17" font-weight="700" fill="#1e293b" letter-spacing="-0.3">Know<tspan fill="#2563EB">AI</tspan>Tool</text>
</svg>
