<svg xmlns="http://www.w3.org/2000/svg" viewBox="0 0 400 220" fill="none">
  <defs>
    <linearGradient id="v2" x1="0" y1="0" x2="400" y2="220" gradientUnits="userSpaceOnUse">
      <stop stop-color="#1a1410"/>
      <stop offset="1" stop-color="#0f172a"/>
    </linearGradient>
  </defs>
  <rect width="400" height="220" fill="url(#v2)"/>
  <circle cx="200" cy="110" r="130" fill="#f59e0b" opacity="0.06"/>
  <!-- Film strip -->
  <rect x="0" y="16" width="400" height="36" fill="#1e293b"/>
  <rect x="0" y="16" width="400" height="36" fill="#f59e0b" opacity="0.04"/>
  <circle cx="20" cy="34" r="4" fill="#334155"/>
  <circle cx="40" cy="34" r="4" fill="#334155"/>
  <circle cx="380" cy="34" r="4" fill="#334155"/>
  <circle cx="360" cy="34" r="4" fill="#334155"/>
  <!-- Film strip bottom -->
  <rect x="0" y="168" width="400" height="36" fill="#1e293b"/>
  <circle cx="20" cy="186" r="4" fill="#334155"/>
  <circle cx="40" cy="186" r="4" fill="#334155"/>
  <circle cx="380" cy="186" r="4" fill="#334155"/>
  <circle cx="360" cy="186" r="4" fill="#334155"/>
  <!-- Video frame left -->
  <rect x="20" y="56" width="174" height="108" rx="8" fill="#0f172a" stroke="#334155" stroke-width="1.5"/>
  <rect x="20" y="56" width="174" height="108" rx="8" fill="url(#v2)" opacity="0.5"/>
  <!-- Play button center -->
  <circle cx="107" cy="110" r="24" fill="#f59e0b" opacity="0.9"/>
  <polygon points="98,96 98,124 120,110" fill="#0f172a"/>
  <!-- Video frame right -->
  <rect x="206" y="56" width="174" height="108" rx="8" fill="#0f172a" stroke="#334155" stroke-width="1.5"/>
  <circle cx="293" cy="110" r="24" fill="#10b981" opacity="0.9"/>
  <polygon points="284,96 284,124 306,110" fill="#0f172a"/>
  <!-- Title -->
  <text x="56" y="148" fill="#f59e0b" font-size="8" font-weight="700" font-family="system-ui" letter-spacing="1.5">AI VIDEO</text>
  <text x="242" y="148" fill="#10b981" font-size="8" font-weight="700" font-family="system-ui" letter-spacing="1.5">AI VIDEO</text>
  <text x="200" y="158" text-anchor="middle" fill="#f1f5f9" font-size="20" font-weight="900" font-family="system-ui" letter-spacing="-0.5">Best AI Video</text>
  <text x="200" y="180" text-anchor="middle" fill="#f1f5f9" font-size="20" font-weight="900" font-family="system-ui" letter-spacing="-0.5">Generators 2026</text>
  <text x="200" y="198" text-anchor="middle" fill="#94a3b8" font-size="9" font-family="system-ui">Sora · Runway · Pika · HeyGen</text>
</svg>
